# xmcd
#
# Track frame offsets: 
#        150
#        20305
#        37840
#        54852
#        78118
#        98132
#        116896
#        131677
#        155084
#        180054
#        201682
#        218667
#
# Disc length: 3201 seconds
#
# Revision: 0
# Processed by: cddbd v1.5.2PL0 Copyright (c) Steve Scherf et al.
# Submitted via: ExactAudioCopy v1.0b4
#
DISCID=950c7f0c
DTITLE=Chris James and Patrick Rynn - Barrelhouse Stomp
DYEAR=2013
DGENRE=Blues
TTITLE0=Goodbye, Later For You
TTITLE1=Just Another Kick In the Teeth
TTITLE2=I Feel So Good
TTITLE3=Messin' With White Lighnin'
TTITLE4=Before It's Too Late
TTITLE5=A Fact is a Fact
TTITLE6=It Always Can Be Worse
TTITLE7=I'm Gonna Stop Fooling Myself
TTITLE8=Vicksburg Blues
TTITLE9=Bobby's Rock
TTITLE10=Take It Easy (a Tribute To Pinetop Perkins)
TTITLE11=Last Call Woogie
EXTD=
EXTT0=
EXTT1=
EXTT2=
EXTT3=
EXTT4=
EXTT5=
EXTT6=
EXTT7=
EXTT8=
EXTT9=
EXTT10=
EXTT11=
PLAYORDER=
